<mxfile host="app.diagrams.net" agent="Mozilla/5.0 (X11; Linux x86_64; rv:124.0) Gecko/20100101 Firefox/124.0" version="24.7.14">
  <diagram name="Page-1" id="jR3CGgP1g1BjzRoQCqm1">
    <mxGraphModel dx="1175" dy="613" grid="1" gridSize="10" guides="1" tooltips="1" connect="1" arrows="1" fold="1" page="1" pageScale="1" pageWidth="850" pageHeight="1100" math="0" shadow="0">
      <root>
        <mxCell id="0" />
        <mxCell id="1" parent="0" />
        <mxCell id="RLlSU3_BGVDVM2KfrkIX-24" value="" style="edgeStyle=orthogonalEdgeStyle;rounded=0;orthogonalLoop=1;jettySize=auto;html=1;" edge="1" parent="1" source="RLlSU3_BGVDVM2KfrkIX-1" target="RLlSU3_BGVDVM2KfrkIX-2">
          <mxGeometry relative="1" as="geometry" />
        </mxCell>
        <mxCell id="RLlSU3_BGVDVM2KfrkIX-1" value="Start" style="ellipse;whiteSpace=wrap;html=1;fontFamily=Verdana;fontSize=17;" vertex="1" parent="1">
          <mxGeometry x="195" y="160" width="100" height="60" as="geometry" />
        </mxCell>
        <mxCell id="RLlSU3_BGVDVM2KfrkIX-25" value="" style="edgeStyle=orthogonalEdgeStyle;rounded=0;orthogonalLoop=1;jettySize=auto;html=1;" edge="1" parent="1" source="RLlSU3_BGVDVM2KfrkIX-2">
          <mxGeometry relative="1" as="geometry">
            <mxPoint x="245" y="360" as="targetPoint" />
          </mxGeometry>
        </mxCell>
        <mxCell id="RLlSU3_BGVDVM2KfrkIX-2" value="Read Num&lt;span style=&quot;white-space: pre;&quot;&gt;&#x9;&lt;/span&gt;" style="shape=parallelogram;perimeter=parallelogramPerimeter;whiteSpace=wrap;html=1;fixedSize=1;fontFamily=Verdana;" vertex="1" parent="1">
          <mxGeometry x="175" y="270" width="140" height="50" as="geometry" />
        </mxCell>
        <mxCell id="RLlSU3_BGVDVM2KfrkIX-7" value="End" style="ellipse;whiteSpace=wrap;html=1;fontFamily=Verdana;fontSize=17;" vertex="1" parent="1">
          <mxGeometry x="600" y="505" width="100" height="60" as="geometry" />
        </mxCell>
        <mxCell id="RLlSU3_BGVDVM2KfrkIX-28" value="" style="edgeStyle=orthogonalEdgeStyle;rounded=0;orthogonalLoop=1;jettySize=auto;html=1;" edge="1" parent="1" source="RLlSU3_BGVDVM2KfrkIX-12" target="RLlSU3_BGVDVM2KfrkIX-15">
          <mxGeometry relative="1" as="geometry" />
        </mxCell>
        <mxCell id="RLlSU3_BGVDVM2KfrkIX-37" value="&lt;font style=&quot;font-size: 18px;&quot; face=&quot;Verdana&quot;&gt;Yes&lt;/font&gt;" style="edgeLabel;html=1;align=center;verticalAlign=middle;resizable=0;points=[];" vertex="1" connectable="0" parent="RLlSU3_BGVDVM2KfrkIX-28">
          <mxGeometry x="-0.1212" relative="1" as="geometry">
            <mxPoint as="offset" />
          </mxGeometry>
        </mxCell>
        <mxCell id="RLlSU3_BGVDVM2KfrkIX-29" style="edgeStyle=orthogonalEdgeStyle;rounded=0;orthogonalLoop=1;jettySize=auto;html=1;entryX=0;entryY=0.5;entryDx=0;entryDy=0;" edge="1" parent="1" source="RLlSU3_BGVDVM2KfrkIX-12" target="RLlSU3_BGVDVM2KfrkIX-16">
          <mxGeometry relative="1" as="geometry">
            <Array as="points">
              <mxPoint x="245" y="630" />
            </Array>
          </mxGeometry>
        </mxCell>
        <mxCell id="RLlSU3_BGVDVM2KfrkIX-38" value="&lt;font style=&quot;font-size: 18px;&quot; face=&quot;Verdana&quot;&gt;No&lt;/font&gt;" style="edgeLabel;html=1;align=center;verticalAlign=middle;resizable=0;points=[];" vertex="1" connectable="0" parent="RLlSU3_BGVDVM2KfrkIX-29">
          <mxGeometry x="-0.7261" relative="1" as="geometry">
            <mxPoint as="offset" />
          </mxGeometry>
        </mxCell>
        <mxCell id="RLlSU3_BGVDVM2KfrkIX-12" value="If Num % 2 == 0" style="rhombus;whiteSpace=wrap;html=1;fontFamily=Verdana;" vertex="1" parent="1">
          <mxGeometry x="155" y="490" width="180" height="90" as="geometry" />
        </mxCell>
        <mxCell id="RLlSU3_BGVDVM2KfrkIX-26" value="" style="edgeStyle=orthogonalEdgeStyle;rounded=0;orthogonalLoop=1;jettySize=auto;html=1;" edge="1" parent="1" source="RLlSU3_BGVDVM2KfrkIX-13" target="RLlSU3_BGVDVM2KfrkIX-12">
          <mxGeometry relative="1" as="geometry" />
        </mxCell>
        <mxCell id="RLlSU3_BGVDVM2KfrkIX-33" value="&lt;font style=&quot;font-size: 18px;&quot; face=&quot;Verdana&quot;&gt;No&lt;/font&gt;" style="edgeLabel;html=1;align=center;verticalAlign=middle;resizable=0;points=[];" vertex="1" connectable="0" parent="RLlSU3_BGVDVM2KfrkIX-26">
          <mxGeometry x="-0.1867" relative="1" as="geometry">
            <mxPoint as="offset" />
          </mxGeometry>
        </mxCell>
        <mxCell id="RLlSU3_BGVDVM2KfrkIX-27" value="" style="edgeStyle=orthogonalEdgeStyle;rounded=0;orthogonalLoop=1;jettySize=auto;html=1;" edge="1" parent="1" source="RLlSU3_BGVDVM2KfrkIX-13" target="RLlSU3_BGVDVM2KfrkIX-14">
          <mxGeometry relative="1" as="geometry" />
        </mxCell>
        <mxCell id="RLlSU3_BGVDVM2KfrkIX-35" value="&lt;font style=&quot;font-size: 18px;&quot; face=&quot;Verdana&quot;&gt;Yes&lt;/font&gt;" style="edgeLabel;html=1;align=center;verticalAlign=middle;resizable=0;points=[];" vertex="1" connectable="0" parent="RLlSU3_BGVDVM2KfrkIX-27">
          <mxGeometry x="-0.0769" relative="1" as="geometry">
            <mxPoint as="offset" />
          </mxGeometry>
        </mxCell>
        <mxCell id="RLlSU3_BGVDVM2KfrkIX-13" value="If Num &amp;lt;= 0" style="rhombus;whiteSpace=wrap;html=1;fontFamily=Verdana;" vertex="1" parent="1">
          <mxGeometry x="165" y="360" width="160" height="80" as="geometry" />
        </mxCell>
        <mxCell id="RLlSU3_BGVDVM2KfrkIX-32" style="edgeStyle=orthogonalEdgeStyle;rounded=0;orthogonalLoop=1;jettySize=auto;html=1;exitX=1;exitY=0.5;exitDx=0;exitDy=0;entryX=0.5;entryY=0;entryDx=0;entryDy=0;" edge="1" parent="1" source="RLlSU3_BGVDVM2KfrkIX-14" target="RLlSU3_BGVDVM2KfrkIX-7">
          <mxGeometry relative="1" as="geometry" />
        </mxCell>
        <mxCell id="RLlSU3_BGVDVM2KfrkIX-14" value="Print &quot;Invalid input&quot;" style="shape=parallelogram;perimeter=parallelogramPerimeter;whiteSpace=wrap;html=1;fixedSize=1;fontFamily=Verdana;" vertex="1" parent="1">
          <mxGeometry x="390" y="370" width="180" height="60" as="geometry" />
        </mxCell>
        <mxCell id="RLlSU3_BGVDVM2KfrkIX-31" value="" style="edgeStyle=orthogonalEdgeStyle;rounded=0;orthogonalLoop=1;jettySize=auto;html=1;" edge="1" parent="1" source="RLlSU3_BGVDVM2KfrkIX-15" target="RLlSU3_BGVDVM2KfrkIX-7">
          <mxGeometry relative="1" as="geometry" />
        </mxCell>
        <mxCell id="RLlSU3_BGVDVM2KfrkIX-15" value="Print &quot;Even&quot;" style="shape=parallelogram;perimeter=parallelogramPerimeter;whiteSpace=wrap;html=1;fixedSize=1;fontFamily=Verdana;" vertex="1" parent="1">
          <mxGeometry x="390" y="505" width="160" height="60" as="geometry" />
        </mxCell>
        <mxCell id="RLlSU3_BGVDVM2KfrkIX-30" style="edgeStyle=orthogonalEdgeStyle;rounded=0;orthogonalLoop=1;jettySize=auto;html=1;exitX=1;exitY=0.5;exitDx=0;exitDy=0;entryX=0.5;entryY=1;entryDx=0;entryDy=0;" edge="1" parent="1" source="RLlSU3_BGVDVM2KfrkIX-16" target="RLlSU3_BGVDVM2KfrkIX-7">
          <mxGeometry relative="1" as="geometry" />
        </mxCell>
        <mxCell id="RLlSU3_BGVDVM2KfrkIX-16" value="Print &quot;Odd&quot;" style="shape=parallelogram;perimeter=parallelogramPerimeter;whiteSpace=wrap;html=1;fixedSize=1;fontFamily=Verdana;" vertex="1" parent="1">
          <mxGeometry x="380" y="600" width="160" height="60" as="geometry" />
        </mxCell>
      </root>
    </mxGraphModel>
  </diagram>
</mxfile>
